<svg xmlns="http://www.w3.org/2000/svg" width="21.215" height="21.213" viewBox="0 0 21.215 21.213">
  <path id="move_up_down" d="M5.625,0H.8A.8.8,0,0,0,0,.8V5.625a.8.8,0,0,0,1.373.569L2.712,4.855,5.357,7.5,2.712,10.145,1.373,8.806A.8.8,0,0,0,0,9.375V14.2a.8.8,0,0,0,.8.8H5.625a.8.8,0,0,0,.569-1.373L4.855,12.288,7.5,9.643l2.645,2.645L8.806,13.627A.8.8,0,0,0,9.375,15H14.2a.8.8,0,0,0,.8-.8V9.375a.8.8,0,0,0-1.373-.569l-1.339,1.339L9.643,7.5l2.645-2.645,1.339,1.339A.8.8,0,0,0,15,5.625V.8a.8.8,0,0,0-.8-.8H9.375a.8.8,0,0,0-.569,1.373l1.339,1.339L7.5,5.357,4.855,2.712,6.194,1.373A.8.8,0,0,0,5.625,0Z" transform="translate(10.607) rotate(45)" fill="#f60"/>
</svg>
